<svg xmlns="http://www.w3.org/2000/svg" width="24.838" height="17.086" viewBox="0 0 24.838 17.086">
  <g id="bahrain" transform="translate(0 -77.4)">
    <path id="Path_30835" data-name="Path 30835" d="M27.973,92.023a2.427,2.427,0,0,1-2.389,2.459H5.689A2.427,2.427,0,0,1,3.3,92.023V79.844A2.413,2.413,0,0,1,5.689,77.4h19.9a2.413,2.413,0,0,1,2.389,2.444Z" transform="translate(-3.135 0)" fill="#e30017"/>
    <path id="Path_30836" data-name="Path 30836" d="M48,77.4H68.031a2.42,2.42,0,0,1,2.4,2.444V92.023a2.433,2.433,0,0,1-2.4,2.459Z" transform="translate(-45.596 0)" fill="#e30017"/>
    <g id="Group_11377" data-name="Group 11377" transform="translate(0 77.4)">
      <path id="Path_30837" data-name="Path 30837" d="M24.838,369.4a2.433,2.433,0,0,1-2.4,2.459H2.4A2.433,2.433,0,0,1,0,369.4Z" transform="translate(0 -354.777)" fill="#e30017"/>
      <path id="Path_30838" data-name="Path 30838" d="M48,77.4H68.031a2.42,2.42,0,0,1,2.4,2.444v4.447Z" transform="translate(-45.596 -77.4)" fill="#e30017"/>
    </g>
    <path id="Path_30839" data-name="Path 30839" d="M0,79.875V92.159a2.431,2.431,0,0,0,2.364,2.494H7.046l1.377-.476L6.65,93.556l1.773-.621-1.773-.6,1.773-.641L6.65,91.087l1.773-.631L6.65,89.85l1.773-.631L6.65,88.613l1.773-.631L6.65,87.376l1.773-.631L6.65,86.059l1.773-.606L6.65,84.822l1.773-.606L6.65,83.585l1.773-.606L6.65,82.349l1.773-.6L6.65,81.117l1.773-.6L6.65,79.895l1.773-.6L6.65,78.663l1.773-.6-1.377-.481H2.364A2.39,2.39,0,0,0,0,79.875Z" transform="translate(0 -0.171)" fill="#f4f4f4"/>
    <g id="Group_11378" data-name="Group 11378" transform="translate(0 77.4)">
      <path id="Path_30840" data-name="Path 30840" d="M54.17,81.591l-1.8-.631,1.8-.606-1.8-.631,1.8-.606-1.8-.631,1.8-.606-1.4-.481H48l5.288,4.487Z" transform="translate(-45.596 -77.4)" fill="#f4f4f4"/>
      <path id="Path_30841" data-name="Path 30841" d="M6.77,372.372l1.8-.621-1.8-.6.1-.05H0a2.364,2.364,0,0,0,2.4,2.379H7.171l1.4-.476Z" transform="translate(0 -356.392)" fill="#f4f4f4"/>
      <path id="Path_30842" data-name="Path 30842" d="M106.322,78.487l1.8-.606-1.4-.481H105.2l1.442.481-1.843.606,1.843.631-1.843.606,1.843.631-1.843.606,1.843.631-1.843.6,1.843.631-1.843.606,1.843.631-1.843.6,1.843.631-1.843.606,1.843.686-1.843.631,1.843.6-1.843.631,1.843.606-1.843.631,1.843.6-1.843.631,1.843.606-1.843.636,1.843.606-1.843.621,1.843.626-1.442.476h1.522l1.4-.476-1.8-.626,1.8-.621-1.8-.606,1.8-.636-1.8-.606,1.8-.631-1.8-.6,1.8-.631-1.8-.606,1.8-.631-1.8-.6,1.8-.631-1.8-.686,1.8-.606-1.8-.631,1.8-.6-1.8-.631,1.8-.606-1.8-.631,1.8-.6-1.8-.631,1.8-.606-1.8-.631,1.8-.606Z" transform="translate(-99.552 -77.4)" fill="#f4f4f4"/>
    </g>
  </g>
</svg>
