<svg xmlns="http://www.w3.org/2000/svg" width="24.847" height="16.832" viewBox="0 0 24.847 16.832">
  <g id="egypt_1_" data-name="egypt (1)" transform="translate(0 -80.01)">
    <path id="Path_30843" data-name="Path 30843" d="M0,304.01V307.3a2.319,2.319,0,0,0,2.4,2.324H22.443a2.319,2.319,0,0,0,2.4-2.324V304.01Z" transform="translate(0 -212.779)"/>
    <path id="Path_30844" data-name="Path 30844" d="M22.443,80.01H2.4A2.319,2.319,0,0,0,0,82.334v3.286H24.847V82.334A2.319,2.319,0,0,0,22.443,80.01Z" transform="translate(0 0)" fill="#e30017"/>
    <rect id="Rectangle_5247" data-name="Rectangle 5247" width="24.753" height="5.863" transform="translate(0.047 85.495)" fill="#f5feff"/>
    <g id="Group_11382" data-name="Group 11382" transform="translate(10.553 85.844)">
      <path id="Path_30851" data-name="Path 30851" d="M211.742,197.225c-.037-.524-.037-1.048-.075-1.571a4.065,4.065,0,0,0-.037-.673,9.88,9.88,0,0,0-.075-1.085.31.31,0,0,0-.3-.112c-.3.037-.561.337-.861.3a1.2,1.2,0,0,1-.187-.486v-.3a.466.466,0,0,0-.15-.412.893.893,0,0,0-.337-.075c-.037,0-.075.037-.112.075-.15-.075-.374-.112-.337.112.15-.075.3.112.3.262a.994.994,0,0,1-.225.786c-.337,0-.561-.262-.861-.3-.262-.037-.337.15-.337.412a4.528,4.528,0,0,1-.037.711,4.066,4.066,0,0,1-.037.673v.374c-.037.224,0,.524-.037.748a2.3,2.3,0,0,1-.037.524,1.8,1.8,0,0,1,.449,0c0,.037.037.037.037.112-.112.037-.112.112-.225.15.075.037.075.187.15.224,0,.075,0,.112.037.112.075.037.3.075.412.112a9.6,9.6,0,0,0,2.32-.037c.15-.037.224-.037.224-.187.075-.037.075-.15.15-.224a.516.516,0,0,1-.15-.112c-.037-.037-.037,0-.075-.037,0-.037,0-.075.037-.075A1.248,1.248,0,0,1,211.742,197.225Zm-3.143-.075c-.037.037-.075.037-.112.075-.037-.075.037-.15.112-.15Zm1.908.15a1.8,1.8,0,0,1-.449,0,.114.114,0,0,1,0-.15h.449c.187-.037.412-.075.561-.112.037,0,.037.075.037.112a1.579,1.579,0,0,1-.449.112C210.657,197.113,210.507,197.15,210.507,197.3Zm.15,0-.075.075a.116.116,0,0,0-.075-.037C210.507,197.188,210.657,197.15,210.657,197.3Zm-1.048-1.31c.037.037.075.075.112.075,0,.075-.037.15-.037.224C209.646,196.215,209.5,196.065,209.609,195.99Zm-.187.187a1.822,1.822,0,0,1-.037-.449l.225.224A.991.991,0,0,1,209.422,196.177Zm.3.861c.037-.187.037-.412.075-.6a2.83,2.83,0,0,1-.037.561c0,.075.075.075.075.15l.112-.112c0-.187-.037-.412-.037-.6a2.889,2.889,0,0,1,.075.561c.037.037.075.037.075.075.037,0,.037-.037.075-.037.037.037,0,.075.037.112h-.15c-.037,0-.037.037-.075.037h-.224c-.037-.075-.15-.037-.224-.037,0-.037,0-.075.037-.075,0-.037.037.037.075.037C209.646,197.075,209.684,197.075,209.721,197.038Zm.6-.861c-.075-.037-.112-.15-.187-.225l.224-.224h0C210.357,195.878,210.32,196.028,210.32,196.177Zm.15-.673h0c.037.187.187.374.075.561-.075-.037-.112-.15-.187-.187A.632.632,0,0,1,210.469,195.5Zm-.3.561c-.037.075-.075.187-.112.262-.037-.075-.037-.15-.075-.224.037-.037.075-.037.112-.112A.08.08,0,0,1,210.17,196.065Zm-.374,1.347c-.037,0-.075-.037-.112-.075,0-.037.037-.037.037-.112C209.8,197.225,209.833,197.337,209.8,197.412Zm0-.187h.15c-.037.037-.037.112-.112.075C209.833,197.262,209.8,197.262,209.8,197.225Zm.187,0c.037,0,.037.075.075.112,0,.037-.075.037-.075.075C209.908,197.375,209.946,197.262,209.983,197.225Zm.449-.187c.037,0,.075.075.075.112h-.112C210.395,197.113,210.432,197.075,210.432,197.038Zm.187.075a.194.194,0,0,1,.075-.15c.037.037.075.075.075.112C210.731,197.075,210.657,197.113,210.619,197.113Zm.187-.037c-.037-.037-.075-.112-.15-.187a.532.532,0,0,0-.075.224h-.037a.284.284,0,0,1-.075-.15c-.037.037-.037.112-.075.187h-.112a.522.522,0,0,1,0-.412.374.374,0,0,1,.15.187c.037-.075.037-.15.075-.224a.374.374,0,0,1,.15.187c.037-.075.075-.187.112-.262h.037l.112.449Zm-.15-.262c-.075-.037-.075-.112-.15-.187-.037.075-.037.15-.075.225-.075-.037-.112-.15-.187-.187a.475.475,0,0,0-.037.224c-.037-.112-.075-.262-.112-.412.037,0,.112.112.15.15.037-.112.037-.224.075-.3.075.037.075.112.112.15l.112-.224c.075.037.112.112.187.15C210.806,196.589,210.694,196.7,210.657,196.813Zm-.112-.561c-.037.075-.037.112-.075.187-.075-.037-.075-.112-.112-.15a.894.894,0,0,0-.075.337c-.075-.075-.187-.112-.187-.224,0-.037.037-.112.037-.15.037-.037.037-.075.075-.15.037.037.075.112.15.15a1.036,1.036,0,0,1,.037-.337c.075.037.112.112.187.187a.138.138,0,0,0,.037-.112.853.853,0,0,1,.112.412C210.657,196.364,210.619,196.29,210.544,196.252Zm.075-.561a3.606,3.606,0,0,1,0-.636h.037c0,.374.037.748.037,1.122A1.105,1.105,0,0,1,210.619,195.691Zm-.748.449a1.752,1.752,0,0,1-.786-1.609,1.227,1.227,0,0,0,.786-.225l.225.112a1.249,1.249,0,0,0,.561.112A1.752,1.752,0,0,1,209.871,196.14Zm-.486-.262a.451.451,0,0,1-.187.187c-.15-.15.037-.374.037-.561A.434.434,0,0,1,209.384,195.878Zm-.3-.823h0c.075.075.037.262.037.412a1.858,1.858,0,0,1-.075.673C209.048,195.8,209.085,195.392,209.085,195.055Zm.075.935c0,.037.037.075.037.112l.187-.187a.929.929,0,0,1,.037.337c.037-.037.075-.112.15-.15.037.112.075.187.112.3-.037.112-.112.15-.187.224l-.112-.337c-.075.037-.037.15-.112.15-.037-.075-.037-.112-.075-.187-.075.037-.112.112-.187.15,0-.037.037-.075.037-.112C209.085,196.177,209.085,196.065,209.16,195.99Zm0,.3a1.244,1.244,0,0,1,.112.224c.037-.037.037-.112.112-.15a2.579,2.579,0,0,0,.112.3l.15-.15a1.329,1.329,0,0,0-.075.374c-.037-.037-.037-.15-.037-.224-.075.037-.112.15-.187.187a.532.532,0,0,1-.075-.225c-.075.037-.075.112-.15.187-.037-.112-.15-.225-.112-.374C209.085,196.4,209.122,196.327,209.16,196.29Zm-.075.561a.657.657,0,0,1,.15-.187.532.532,0,0,1,.075.224c.075-.037.112-.15.15-.187a.524.524,0,0,1,0,.412h-.112c-.037-.037-.037-.112-.075-.187-.037.037-.075.112-.112.15h-.037a.532.532,0,0,1-.075-.224c-.037.037-.075.112-.112.15a.137.137,0,0,1-.112-.037,3.476,3.476,0,0,1,.15-.486A2.322,2.322,0,0,0,209.085,196.851Zm.262.3h-.112c0-.037.037-.075.037-.112C209.31,197.038,209.31,197.113,209.347,197.15Zm-.224-.037c-.075,0-.112-.037-.15-.037,0-.075.075-.075.075-.15C209.085,197,209.122,197.038,209.122,197.113Zm0,.037a3.023,3.023,0,0,0,.561.037c.037.037,0,.075,0,.15a1.8,1.8,0,0,1-.449,0c0-.15-.112-.187-.112-.037-.15-.037-.374-.037-.374-.112v-.112c0-.037-.037-.037.037-.037A3.531,3.531,0,0,0,209.122,197.15Zm.075.15a.037.037,0,0,0-.037.037c-.075,0-.075-.187.037-.15Zm1.946-.224c.075,0,.112.075.112.15-.037,0-.075-.037-.112-.037Zm-.225-.037c-.075-.262-.15-.486-.225-.748.075.037.112.112.15.15,0-.636-.075-1.31-.075-1.983a.58.58,0,0,1-.3.075,1.08,1.08,0,0,1-.636-.225,1.468,1.468,0,0,1-.486.225.459.459,0,0,1-.449-.075c-.037.673-.075,1.31-.075,1.983.075-.037.112-.112.187-.15-.075.262-.15.561-.224.786-.15-.037-.337-.15-.374.112h-.3c.037,0,.037-.075.112-.15.037-1.01.075-1.983.112-3.031a.286.286,0,0,0-.187.075c0-.15.075-.3.224-.3.337-.037.6.3.935.3,0,.037-.037.037-.075.075.075,0,.187,0,.224-.037,0,.037-.037.075-.075.112a.334.334,0,0,0,.3-.15l.112.112.112-.112a.474.474,0,0,0,.337.15c0-.037-.075-.075-.075-.112a.556.556,0,0,0,.224.037c0-.037-.075-.037-.075-.075.374,0,.561-.337.935-.3.15,0,.224.112.224.3-.075-.037-.112-.075-.187-.075.037.823.075,1.833.112,2.656,0,.112-.037.262,0,.337s.15.112.187.187h-.374C211.293,197.038,211.105,197,210.918,197.038Z" transform="translate(-208 -192.81)" fill="#c99200"/>
      <g id="Group_11379" data-name="Group 11379" transform="translate(0.187 0)">
        <path id="Path_30852" data-name="Path 30852" d="M229.571,225.035a1.08,1.08,0,0,1-.636-.225,1.469,1.469,0,0,1-.486.225.459.459,0,0,1-.449-.075v.15l.187.15v-.187a1.227,1.227,0,0,0,.786-.224l.225.112a1.249,1.249,0,0,0,.561.112,1.984,1.984,0,0,1-.374,1.2h.037l.037-.037h0v.075h0a.425.425,0,0,1,.112-.3h.037c0,.15.112.337.075.486h0v0l.037.037a.929.929,0,0,1-.037-.337,3.6,3.6,0,0,1,0-.636h.037c0,.337.037.711.037,1.048l.187.15c0-.6-.037-1.2-.075-1.8A.579.579,0,0,1,229.571,225.035Z" transform="translate(-227.252 -223.313)" fill="#c99200"/>
        <path id="Path_30853" data-name="Path 30853" d="M215.48,195.654a4.066,4.066,0,0,0-.037-.673,9.883,9.883,0,0,0-.075-1.085.31.31,0,0,0-.3-.112c-.3.037-.561.337-.861.3a1.2,1.2,0,0,1-.187-.486v-.3a.466.466,0,0,0-.15-.412.893.893,0,0,0-.337-.075c-.037,0-.075.037-.112.075-.15-.075-.374-.112-.337.112.15-.075.3.112.3.262a.994.994,0,0,1-.225.786c-.337,0-.561-.262-.861-.3-.187,0-.262.075-.3.187h0a.253.253,0,0,1,.225-.15c.337-.037.6.3.935.3,0,.037-.037.037-.075.075.075,0,.187,0,.225-.037,0,.037-.037.075-.075.112a.335.335,0,0,0,.3-.15l.112.112.112-.112a.474.474,0,0,0,.337.15c0-.037-.075-.075-.075-.112a.556.556,0,0,0,.225.037c0-.037-.075-.037-.075-.075.374,0,.561-.337.935-.3.15,0,.225.112.225.3-.075-.037-.112-.075-.187-.075.037.823.075,1.833.112,2.656v.112l.225.187A7.653,7.653,0,0,0,215.48,195.654Z" transform="translate(-212 -192.81)" fill="#c99200"/>
        <path id="Path_30854" data-name="Path 30854" d="M213.712,218.522v-.112a.137.137,0,0,0-.112.037Z" transform="translate(-213.525 -217.213)" fill="#c99200"/>
      </g>
      <path id="Path_30855" data-name="Path 30855" d="M214.512,219.21c-.037.973-.075,1.946-.112,2.881.075-.037.15-.15.224-.187.037-.9.075-1.646.112-2.507A.992.992,0,0,0,214.512,219.21Z" transform="translate(-214.101 -217.975)" fill="#c99200"/>
      <path id="Path_30856" data-name="Path 30856" d="M216.8,219.322l.224.187V219.4a.992.992,0,0,0-.224-.187Z" transform="translate(-216.388 -217.975)" fill="#c99200"/>
      <path id="Path_30857" data-name="Path 30857" d="M274.625,219.21c-.037.075-.187.112-.225.187v.337c.075.673.037,1.422.075,2.133l.112.112c.037.037.075.112.112.075C274.7,221.156,274.662,220.071,274.625,219.21Z" transform="translate(-271.295 -217.975)" fill="#c99200"/>
      <path id="Path_30858" data-name="Path 30858" d="M274.625,219.21c-.037.075-.187.112-.225.187v.337c.037.6.037,1.272.075,1.946l.224.187C274.7,221.006,274.662,220.033,274.625,219.21Z" transform="translate(-271.295 -217.975)" fill="#c99200"/>
      <path id="Path_30859" data-name="Path 30859" d="M220.8,226.4c.037-.075.15-.112.187-.187s0-.187,0-.3c.037-.561.075-1.235.075-1.759-.075-.037-.112-.112-.187-.15C220.875,224.8,220.837,225.619,220.8,226.4Z" transform="translate(-220.201 -222.551)" fill="#c99200"/>
      <path id="Path_30860" data-name="Path 30860" d="M222.4,224.122l.187.15v-.112c-.075-.037-.112-.112-.187-.15C222.437,224.047,222.4,224.085,222.4,224.122Z" transform="translate(-221.727 -222.551)" fill="#c99200"/>
      <path id="Path_30861" data-name="Path 30861" d="M269.6,224.922c.037.673.037,1.384.075,2.058l.15.15.037.037c-.037-.786-.075-1.646-.112-2.357C269.712,224.847,269.637,224.885,269.6,224.922Z" transform="translate(-266.719 -223.313)" fill="#c99200"/>
      <path id="Path_30862" data-name="Path 30862" d="M269.75,224.01c-.037.037-.112.075-.15.15.037.636.037,1.272.075,1.908l.187.15C269.824,225.469,269.787,224.683,269.75,224.01Z" transform="translate(-266.719 -222.551)" fill="#c99200"/>
      <path id="Path_30863" data-name="Path 30863" d="M232,225.835a1.783,1.783,0,0,0,.748,1.5,1.672,1.672,0,0,0,.711-1.5,1.013,1.013,0,0,1-.711-.225A1.117,1.117,0,0,1,232,225.835Z" transform="translate(-230.878 -224.076)" fill="#c99200"/>
      <path id="Path_30864" data-name="Path 30864" d="M232,225.835c0,.075.037.112.037.187l1.085.935a1.818,1.818,0,0,0,.337-1.122,1.013,1.013,0,0,1-.711-.225A1.117,1.117,0,0,1,232,225.835Z" transform="translate(-230.878 -224.076)" fill="#c99200"/>
      <g id="Group_11380" data-name="Group 11380" transform="translate(0.673 4.278)">
        <path id="Path_30865" data-name="Path 30865" d="M222.4,284.309c.037,0,.075.037.112.037,0-.075-.075-.075-.112-.037Z" transform="translate(-222.4 -284.285)" fill="#c99200"/>
        <path id="Path_30866" data-name="Path 30866" d="M271.2,284.347c.037,0,.075-.037.112-.037C271.312,284.272,271.2,284.272,271.2,284.347Z" transform="translate(-268.918 -284.285)" fill="#c99200"/>
        <path id="Path_30867" data-name="Path 30867" d="M226.55,285.647c-.037-.037-.075-.037-.15-.037A.225.225,0,0,0,226.55,285.647Z" transform="translate(-226.213 -285.548)" fill="#c99200"/>
        <path id="Path_30868" data-name="Path 30868" d="M266.4,285.647c.037,0,.15,0,.15-.037A.387.387,0,0,0,266.4,285.647Z" transform="translate(-264.342 -285.548)" fill="#c99200"/>
        <path id="Path_30869" data-name="Path 30869" d="M257.6,286.866h.15C257.75,286.791,257.637,286.791,257.6,286.866Z" transform="translate(-255.954 -286.692)" fill="#c99200"/>
        <path id="Path_30870" data-name="Path 30870" d="M235.35,287.019c-.037,0-.15-.037-.15.037C235.237,287.019,235.35,287.057,235.35,287.019Z" transform="translate(-234.601 -286.883)" fill="#c99200"/>
        <path id="Path_30871" data-name="Path 30871" d="M240.15,287.21c-.037,0-.15,0-.15.037A.225.225,0,0,0,240.15,287.21Z" transform="translate(-239.177 -287.073)" fill="#c99200"/>
        <path id="Path_30872" data-name="Path 30872" d="M252.8,287.509a.283.283,0,0,1,.15.037C252.95,287.472,252.837,287.472,252.8,287.509Z" transform="translate(-251.378 -287.335)" fill="#c99200"/>
      </g>
      <g id="Group_11381" data-name="Group 11381" transform="translate(0.599 4.49)">
        <path id="Path_30873" data-name="Path 30873" d="M263.623,289.035c-.112,0-.075-.187-.15-.225a.138.138,0,0,0-.112.037c.112-.075.15.112.15.225-.037,0-.037-.037-.075-.037-.075,0-.075.075-.15.075,0-.037-.037-.037-.112-.037-.037-.037,0-.112-.037-.112,0,.037.037.075.037.112-.037.037-.037.037-.037.075h-.075c0-.037,0-.075-.037-.075,0,.037-.075.037-.037.075a.116.116,0,0,1,.075.037c0,.037-.037.037-.037.075.037,0,.037-.037.075-.075.075,0,.15-.037.187,0,.037,0,.037-.075.075-.075.075.075.15-.037.187-.037h.112v-.037C263.623,289,263.66,289.035,263.623,289.035Zm-.636.112c0-.037,0-.037.037-.037v.037S263.024,289.184,262.987,289.147Zm.187,0v-.075c.037,0,.037.037,0,.075Zm.112-.037h-.037C263.174,289.072,263.286,289.035,263.286,289.109Zm-.037.037a.037.037,0,0,1,.037-.037C263.286,289.147,263.248,289.184,263.248,289.147Zm.112-.037c0-.075.075-.075.112-.037C263.473,289.109,263.4,289.109,263.361,289.109Z" transform="translate(-261.004 -288.81)" fill="#c99200"/>
        <path id="Path_30874" data-name="Path 30874" d="M221.675,289.647h0c-.037-.037-.037-.037-.075-.037v.037Z" transform="translate(-221.563 -289.573)" fill="#c99200"/>
        <path id="Path_30875" data-name="Path 30875" d="M220.875,291.21H220.8c.037.037.037.037.075,0Z" transform="translate(-220.8 -291.098)" fill="#c99200"/>
        <path id="Path_30876" data-name="Path 30876" d="M253.637,292.847v-.037H253.6a.037.037,0,0,0,.037.037Z" transform="translate(-252.066 -292.623)" fill="#c99200"/>
        <path id="Path_30877" data-name="Path 30877" d="M229.137,293.072c-.037-.037-.037-.075-.075-.112.075-.037.037-.15,0-.15s-.037.037-.075.037c0,.037.037.037.037.075-.037,0-.112.037-.15,0,0-.037,0-.075-.037-.075,0,.037.037.112-.037.15.037,0,.037-.037.075-.037.037.037.112,0,.15,0,.075.037.075.15.112.112.075,0,.075-.187.037-.262C229.174,292.885,229.249,293.072,229.137,293.072Zm-.15-.15c0-.112.15,0,.037.037Z" transform="translate(-228.426 -292.623)" fill="#c99200"/>
        <path id="Path_30878" data-name="Path 30878" d="M238.861,293.035c0-.075.037-.187,0-.225C238.861,292.847,238.824,292.96,238.861,293.035Z" transform="translate(-238.001 -292.623)" fill="#c99200"/>
        <path id="Path_30879" data-name="Path 30879" d="M254.587,292.122c-.037.037.037.037,0,.075,0,.037-.037.037-.075.037-.075-.037,0-.187-.037-.225,0,.037.037.112,0,.187-.037,0-.075,0-.075.037h.224S254.662,292.122,254.587,292.122Z" transform="translate(-252.829 -291.86)" fill="#c99200"/>
        <path id="Path_30880" data-name="Path 30880" d="M253.913,294.071c0-.037-.037,0-.037,0C253.8,294.071,253.913,294.109,253.913,294.071Z" transform="translate(-252.304 -293.809)" fill="#c99200"/>
        <path id="Path_30881" data-name="Path 30881" d="M260.586,294.41c-.037.037.037.075.037.112s-.037.037-.037.075C260.624,294.6,260.661,294.447,260.586,294.41Zm.037.112a.037.037,0,0,1-.037-.037C260.586,294.447,260.624,294.485,260.624,294.522Z" transform="translate(-258.716 -294.148)" fill="#c99200"/>
        <path id="Path_30882" data-name="Path 30882" d="M275.2,294.871c.037,0,.075.037.075,0C275.237,294.871,275.2,294.834,275.2,294.871Z" transform="translate(-272.656 -294.572)" fill="#c99200"/>
        <path id="Path_30883" data-name="Path 30883" d="M240.486,295.322h-.037c0-.037,0-.075-.037-.075a.329.329,0,0,1-.262-.037c0,.037.037.075-.037.112-.037,0-.037-.075-.075-.075-.037.037.037.075.037.075,0,.037-.037.075-.075.112.037,0,.075-.075.112-.112h.224c0,.037.037.037.075.075.037,0,.037-.075.037-.075.075,0,.112,0,.15-.037C240.6,295.21,240.486,295.247,240.486,295.322Zm-.112.075c-.037,0-.037-.037-.037-.075h-.15c0-.15.15,0,.225-.075C240.449,295.322,240.412,295.36,240.374,295.4Zm.15-.075c-.037-.037.037-.075.037-.037S240.561,295.322,240.524,295.322Z" transform="translate(-239.102 -294.911)" fill="#c99200"/>
        <path id="Path_30884" data-name="Path 30884" d="M221.637,296.509v-.037s0-.037-.037,0C221.6,296.434,221.6,296.471,221.637,296.509Z" transform="translate(-221.563 -296.097)" fill="#c99200"/>
        <path id="Path_30885" data-name="Path 30885" d="M223.2,296.532c.037.037.075,0,.075-.037C223.237,296.457,223.2,296.494,223.2,296.532Z" transform="translate(-223.088 -296.12)" fill="#c99200"/>
        <path id="Path_30886" data-name="Path 30886" d="M225.387,296.729h.037C225.424,296.655,225.349,296.692,225.387,296.729Z" transform="translate(-225.162 -296.318)" fill="#c99200"/>
        <path id="Path_30887" data-name="Path 30887" d="M255.428,298.41c-.037,0-.037.075,0,.075Z" transform="translate(-253.782 -297.961)" fill="#c99200"/>
        <path id="Path_30888" data-name="Path 30888" d="M256.8,298.557a.037.037,0,0,0,.037.037C256.912,298.557,256.8,298.483,256.8,298.557Z" transform="translate(-255.116 -298.071)" fill="#c99200"/>
        <path id="Path_30889" data-name="Path 30889" d="M221.9,289.8c.075.112-.075.15-.112.075,0-.037.037-.037.037-.075-.037,0-.037.075-.037.075-.15,0-.037-.187-.037-.262h-.037a.206.206,0,0,1-.112.187c0,.075.075.075.15.112a.225.225,0,0,0,.15.037C221.9,289.872,221.974,289.8,221.9,289.8Z" transform="translate(-221.563 -289.573)" fill="#c99200"/>
      </g>
    </g>
  </g>
</svg>
