<svg xmlns="http://www.w3.org/2000/svg" width="24.844" height="16.277" viewBox="0 0 24.844 16.277">
  <g id="jordan_1_" data-name="jordan (1)" transform="translate(0 -88.276)">
    <path id="Path_30830" data-name="Path 30830" d="M36.854,88.276H15.731a1.852,1.852,0,0,0-1.153.4L23.854,93.7h14.86V90.137A1.861,1.861,0,0,0,36.854,88.276Z" transform="translate(-13.871 0)" fill="#00080c"/>
    <path id="Path_30831" data-name="Path 30831" d="M14.578,316.932a1.852,1.852,0,0,0,1.153.4H36.854a1.861,1.861,0,0,0,1.861-1.861v-3.565H23.854Z" transform="translate(-13.871 -212.781)" fill="#0d7b3d"/>
    <path id="Path_30832" data-name="Path 30832" d="M210.437,202.631a.2.2,0,0,1,0,.347l-4.688,2.539h14.86v-5.426h-14.86Z" transform="translate(-195.766 -106.39)" fill="#fff"/>
    <path id="Path_30833" data-name="Path 30833" d="M14.672,104.453a.2.2,0,0,0,0-.347l-4.688-2.539L.707,96.542A1.857,1.857,0,0,0,0,98v12.556a1.857,1.857,0,0,0,.707,1.46l9.276-5.025Z" transform="translate(0 -7.865)" fill="#d10821"/>
    <path id="Path_30834" data-name="Path 30834" d="M71.823,232.657l.255.552.59-.145a.045.045,0,0,1,.05.063l-.273.543.482.371a.044.044,0,0,1-.018.079l-.6.125.01.608a.045.045,0,0,1-.073.035l-.469-.387-.469.387a.044.044,0,0,1-.073-.035l.01-.608-.6-.125a.044.044,0,0,1-.018-.079l.482-.371-.273-.543a.044.044,0,0,1,.05-.063l.59.145.255-.552A.044.044,0,0,1,71.823,232.657Z" transform="translate(-67.194 -137.351)" fill="#f5f5f5"/>
  </g>
</svg>
