<svg xmlns="http://www.w3.org/2000/svg" width="24.839" height="16.274" viewBox="0 0 24.839 16.274">
  <g id="saudi-arabia_1_" data-name="saudi-arabia (1)" transform="translate(0 -88.276)">
    <path id="Path_30791" data-name="Path 30791" d="M22.979,104.55H1.86A1.86,1.86,0,0,1,0,102.69V90.136a1.86,1.86,0,0,1,1.86-1.86H22.979a1.86,1.86,0,0,1,1.86,1.86V102.69A1.86,1.86,0,0,1,22.979,104.55Z" fill="#006c35"/>
    <g id="Group_11376" data-name="Group 11376" transform="translate(4.135 91.212)">
      <path id="Path_30792" data-name="Path 30792" d="M102.4,168.007c.047.3.227.392.384.38a.386.386,0,0,0,.347-.362V167a.093.093,0,1,1,.186,0v1.029a.372.372,0,0,0,.511.346l.093-.037c.009.86-.044,1.616-.045,1.63a.186.186,0,0,0,.173.2h.013a.186.186,0,0,0,.186-.173c0-.061.062-.888.044-1.8l.056-.022a.187.187,0,0,1,.152.006.532.532,0,0,0,.614-.1l.034-.034a.556.556,0,0,0,.135-.572l-.159-.476a.186.186,0,0,0,.138-.345l-.373-.186a.186.186,0,0,0-.26.226l.3.9a.185.185,0,0,1-.045.191l-.034.034a.16.16,0,0,1-.184.03.557.557,0,0,0-.387-.039,6.424,6.424,0,0,0-.228-1.6.186.186,0,0,0-.353.118,6.4,6.4,0,0,1,.213,1.626l-.223.089V167a.466.466,0,1,0-.931,0v.9l-.19-.939a.186.186,0,1,0-.365.074Z" transform="translate(-102.146 -165.685)" fill="#f5f5f5"/>
      <path id="Path_30793" data-name="Path 30793" d="M109.346,163.153a.186.186,0,0,0,.186-.186v-.186a.186.186,0,1,0-.373,0v.186A.186.186,0,0,0,109.346,163.153Z" transform="translate(-108.735 -162.396)" fill="#f5f5f5"/>
      <path id="Path_30794" data-name="Path 30794" d="M144.143,162.967h.186a.186.186,0,1,0,0-.373h-.186a.186.186,0,1,0,0,.373Z" transform="translate(-141.67 -162.396)" fill="#f5f5f5"/>
      <path id="Path_30795" data-name="Path 30795" d="M106.7,214.816l-.931.559a.186.186,0,1,0,.192.319l.931-.559a.186.186,0,1,0-.192-.319Z" transform="translate(-105.441 -211.797)" fill="#f5f5f5"/>
      <path id="Path_30796" data-name="Path 30796" d="M119.019,169.036l0,0a.425.425,0,0,0,.086.175.366.366,0,0,0,.317.123.514.514,0,0,0,.387-.2.339.339,0,0,0,.039.023.353.353,0,0,0,.328-.011.707.707,0,0,0,.334-.656.191.191,0,0,0-.194-.176.187.187,0,0,0-.178.193s0,.223-.131.305a.453.453,0,0,1-.058-.157.186.186,0,0,0-.37.031c0,.027-.006.266-.191.286a.455.455,0,0,1,0-.244.186.186,0,0,0-.286-.2l-.1.071c-.049-1.08-.163-2.339-.164-2.355a.186.186,0,1,0-.371.034c0,.017.133,1.474.174,2.586l-.029.028a.48.48,0,0,0-.408-.32.68.68,0,0,0-.656.415.441.441,0,0,0,.142.556.621.621,0,0,0,.556.025,1.558,1.558,0,0,1-.3.574.782.782,0,0,1-.6.3.49.49,0,0,1-.362-.154,1.064,1.064,0,0,1-.2-.666.186.186,0,0,0-.176-.2.183.183,0,0,0-.2.176,1.428,1.428,0,0,0,.292.936.854.854,0,0,0,.624.277h.037a1.135,1.135,0,0,0,.855-.433,1.927,1.927,0,0,0,.427-.955,2.111,2.111,0,0,1-.894,1.673.93.93,0,0,1-.933.068.8.8,0,0,1-.41-.788.186.186,0,1,0-.37-.046,1.17,1.17,0,0,0,.615,1.168,1.266,1.266,0,0,0,.564.134,1.378,1.378,0,0,0,.731-.22,2.476,2.476,0,0,0,1.07-1.99C119.025,169.3,119.023,169.174,119.019,169.036Zm-1.123.192c-.033-.022-.007-.092,0-.106a.317.317,0,0,1,.26-.183h.015c.024,0,.087.008.114.149,0,.015.005.03.007.046C118.083,169.256,117.944,169.259,117.9,169.228Z" transform="translate(-115.247 -165.688)" fill="#f5f5f5"/>
      <path id="Path_30797" data-name="Path 30797" d="M101.93,243.4a.187.187,0,0,0-.255.066.385.385,0,0,1-.031.044l-.006-.015a1.253,1.253,0,0,1,.006-.632.186.186,0,0,0-.36-.1,1.6,1.6,0,0,0,.005.859c.085.228.217.285.312.293h.025a.489.489,0,0,0,.371-.266A.186.186,0,0,0,101.93,243.4Z" transform="translate(-101.225 -238.151)" fill="#f5f5f5"/>
      <path id="Path_30798" data-name="Path 30798" d="M175.315,164.27a.185.185,0,0,0,.115-.04l.939-.737a.179.179,0,0,0,.031-.036.466.466,0,1,0-.535-.041l-.665.522a.186.186,0,0,0,.115.333Zm.846-1.3a.093.093,0,1,1-.093.093A.093.093,0,0,1,176.161,162.967Z" transform="translate(-171.173 -162.396)" fill="#f5f5f5"/>
      <path id="Path_30799" data-name="Path 30799" d="M185.424,190.441a.186.186,0,0,0-.236.118.569.569,0,0,0,.073.549.376.376,0,0,0,.278.106.818.818,0,0,0,.257-.048.186.186,0,1,0-.118-.353.645.645,0,0,1-.152.033.357.357,0,0,1,.015-.17A.186.186,0,0,0,185.424,190.441Z" transform="translate(-180.656 -188.743)" fill="#f5f5f5"/>
      <path id="Path_30800" data-name="Path 30800" d="M227.75,163.185a.186.186,0,0,0,.231-.127l.109-.373a.186.186,0,0,0-.358-.1l-.109.373A.186.186,0,0,0,227.75,163.185Z" transform="translate(-220.85 -162.257)" fill="#f5f5f5"/>
      <path id="Path_30801" data-name="Path 30801" d="M206.006,159.8a.186.186,0,1,0,.188-.322c-.037-.022-.032-.083-.031-.1a.146.146,0,0,1,.085-.124.186.186,0,0,0-.111-.356.511.511,0,0,0-.345.438A.459.459,0,0,0,206.006,159.8Z" transform="translate(-200.192 -158.898)" fill="#f5f5f5"/>
      <path id="Path_30802" data-name="Path 30802" d="M178.94,232.189a.186.186,0,0,0-.035.369.35.35,0,0,1,.035.19.186.186,0,0,0,.373,0C179.313,232.2,178.956,232.189,178.94,232.189Z" transform="translate(-174.604 -228.266)" fill="#f5f5f5"/>
      <path id="Path_30803" data-name="Path 30803" d="M234.8,208.362a.431.431,0,0,0,.07.006.637.637,0,0,0,.441-.22.186.186,0,0,0-.263-.263c-.111.111-.171.114-.187.11-.036-.005-.068-.051-.075-.064a.186.186,0,0,0-.332.169A.5.5,0,0,0,234.8,208.362Z" transform="translate(-227.301 -205.21)" fill="#f5f5f5"/>
      <path id="Path_30804" data-name="Path 30804" d="M293.951,190.949l0-.008a.186.186,0,0,0-.353.119.417.417,0,0,0,.3.29l.041,0a.456.456,0,0,0,.36-.249.186.186,0,1,0-.31-.207A.564.564,0,0,1,293.951,190.949Z" transform="translate(-283.288 -189.106)" fill="#f5f5f5"/>
      <path id="Path_30805" data-name="Path 30805" d="M204.659,170.909c0-.794-.035-1.54-.083-2.192a9.434,9.434,0,0,1,.654,1.327.186.186,0,0,0,.174.121.189.189,0,0,0,.065-.012.186.186,0,0,0,.109-.24,12.337,12.337,0,0,0-1.077-2.042c-.1-1-.216-1.64-.218-1.652a.186.186,0,0,0-.367.067c0,.008.06.336.13.888-.143-.212-.276-.4-.388-.562l.009,0a.186.186,0,1,0,.118-.353l-.559-.186a.185.185,0,0,0-.21.068.187.187,0,0,0-.027.057.406.406,0,0,0-.389-.093.317.317,0,0,0-.178.331,1.683,1.683,0,0,0,.129.528c.11.311.178.539.062.648a.2.2,0,0,1-.191.067c-.115-.029-.229-.182-.3-.409a.172.172,0,0,0-.015-.026,3.168,3.168,0,0,0-.057-1.031.186.186,0,0,0-.365.073,1.773,1.773,0,0,1-.1,1.327.334.334,0,0,1-.279.126.107.107,0,0,1-.089-.042,1.8,1.8,0,0,1-.1-1.05.186.186,0,0,0-.184-.212c-.32,0-.442.364-.549.686-.047.141-.135.4-.2.432-.113,0-.186-.331-.186-.559a.186.186,0,0,0-.186-.186h0a.186.186,0,0,0-.186.186c0,.43.146.931.559.931.307,0,.432-.335.536-.646a1.167,1.167,0,0,0,.211.662.478.478,0,0,0,.371.17.709.709,0,0,0,.567-.263.862.862,0,0,0,.069-.1.7.7,0,0,0,.39.293.537.537,0,0,0,.132.017.591.591,0,0,0,.406-.173.547.547,0,0,0,.062-.075.5.5,0,0,0,.138.021.754.754,0,0,0,.386-.119.186.186,0,0,0-.2-.314.4.4,0,0,1-.211.056,1.922,1.922,0,0,0-.141-.612,2.591,2.591,0,0,1-.1-.311l.044.039a.186.186,0,0,0,.263,0,.178.178,0,0,0,.027-.041c.193.266.59.825,1,1.469.078.792.146,1.8.146,2.91a.186.186,0,0,0,.373,0Z" transform="translate(-194.362 -165.682)" fill="#f5f5f5"/>
      <path id="Path_30806" data-name="Path 30806" d="M293.772,166.82a.186.186,0,0,0,.373,0,1.9,1.9,0,0,0-.206-.642.186.186,0,1,0-.333.167A1.655,1.655,0,0,1,293.772,166.82Z" transform="translate(-283.289 -165.691)" fill="#f5f5f5"/>
      <path id="Path_30807" data-name="Path 30807" d="M263.285,249.982a.186.186,0,0,0-.25.082.536.536,0,0,1-.077.111,1.039,1.039,0,0,1,.049-.345.186.186,0,0,0-.31-.186l-.373.372a.186.186,0,0,0,.263.263l.009-.009a.385.385,0,0,0,.1.2.341.341,0,0,0,.242.107.332.332,0,0,0,.051,0,.606.606,0,0,0,.378-.337A.186.186,0,0,0,263.285,249.982Z" transform="translate(-253.649 -244.734)" fill="#f5f5f5"/>
      <path id="Path_30808" data-name="Path 30808" d="M170.99,205.665h-1.313q.017-.07.036-.133c.524-.109.835-.278.926-.5a.416.416,0,0,0-.07-.418.462.462,0,0,0-.471-.2c-.265.054-.5.339-.67.8a2.141,2.141,0,0,0-1.076.465,2.886,2.886,0,0,0-.386-1.238.186.186,0,1,0-.31.207,2.69,2.69,0,0,1,.341,1.387,1.474,1.474,0,0,1-1.118,1.49c-.209,0-.3-.249-.341-.459a2.139,2.139,0,0,0,.894-.986,1.481,1.481,0,0,0-.124-1.01l-.014-.032.012.011a.186.186,0,0,0,.263-.263c-.109-.109-.32-.28-.513-.2a.317.317,0,0,0-.178.331.792.792,0,0,0,.087.3,1.126,1.126,0,0,1,.105.773,1.576,1.576,0,0,1-.61.672.183.183,0,0,0-.141-.068h0a.186.186,0,0,0-.186.186c0,.034,0,.069,0,.106a9.792,9.792,0,0,1-1.2.656.186.186,0,0,0,.077.356.184.184,0,0,0,.077-.017,10.728,10.728,0,0,0,1.112-.6.725.725,0,0,0,.673.612,1.582,1.582,0,0,0,1.246-.911,1.083,1.083,0,0,0,.124.178,2.1,2.1,0,0,0,1.423.547.186.186,0,0,0,.013-.372.4.4,0,0,1-.232-.113.319.319,0,0,1-.061-.245c.019-.23.76-.4,1.412-.411a.187.187,0,0,0,.173-.124l.186-.524a.186.186,0,0,0-.175-.249Zm-.818-.889.014,0c.018,0,.046.009.083.059.007.009.03.042.024.056-.021.053-.15.14-.418.219C169.994,204.878,170.109,204.788,170.172,204.776Zm-1.125,2.449a1.14,1.14,0,0,1-.516-.313.792.792,0,0,1-.165-.656.549.549,0,0,1,.039-.079c.262-.024.963.079,1.012.28a.625.625,0,0,0-.394.486A.786.786,0,0,0,169.047,207.224Z" transform="translate(-161.426 -201.917)" fill="#f5f5f5"/>
      <path id="Path_30809" data-name="Path 30809" d="M291.588,166.756l-.186-.559a.186.186,0,0,0-.362.077c.129,1.285.372,3.792.372,4.079,0,.258-.459.766-1.2,1.137a.186.186,0,0,0,.167.333c.678-.339,1.407-.944,1.407-1.471,0-.275-.19-2.255-.3-3.368A.186.186,0,0,0,291.588,166.756Z" transform="translate(-279.996 -165.686)" fill="#f5f5f5"/>
      <path id="Path_30810" data-name="Path 30810" d="M335.959,194.133a.186.186,0,0,0,.312-.178.939.939,0,0,1-.027-.362.189.189,0,0,0,.194-.16.186.186,0,0,0-.158-.211.336.336,0,0,0-.307.1.426.426,0,0,0-.094.2l-.216-.216a.186.186,0,0,0-.263.263Z" transform="translate(-322.813 -191.382)" fill="#f5f5f5"/>
      <path id="Path_30811" data-name="Path 30811" d="M340.905,213.3l-.7.5a.186.186,0,0,0,.217.3l.7-.5a.186.186,0,1,0-.217-.3Z" transform="translate(-327.34 -210.353)" fill="#f5f5f5"/>
      <path id="Path_30812" data-name="Path 30812" d="M352.781,225.734a.186.186,0,0,0,.016.247.517.517,0,0,1,.038.268.186.186,0,0,0,.18.193h.007a.186.186,0,0,0,.186-.18c.014-.38-.111-.519-.165-.561A.186.186,0,0,0,352.781,225.734Z" transform="translate(-339.279 -222.088)" fill="#f5f5f5"/>
      <path id="Path_30813" data-name="Path 30813" d="M324.764,170.71a.186.186,0,0,0,.186-.186c0-.275-.014-.582-.037-.9a6.8,6.8,0,0,1,.437.811.186.186,0,0,0,.171.113.183.183,0,0,0,.073-.015.186.186,0,0,0,.1-.244,10.249,10.249,0,0,0-.852-1.469c-.073-.684-.169-1.354-.243-1.834a.18.18,0,0,0,.116-.029.184.184,0,0,0,.082-.168.181.181,0,0,0,.021.054.678.678,0,0,1,.068.456.186.186,0,0,0,.145.22.2.2,0,0,0,.038,0,.187.187,0,0,0,.182-.149,1.055,1.055,0,0,0-.118-.731.187.187,0,0,0-.257-.057.184.184,0,0,0-.083.168.182.182,0,0,0-.021-.054l-.314-.489a.186.186,0,0,0-.34.133c0,.015.145.832.271,1.817-.143-.2-.286-.4-.424-.587-.022-.282-.045-.542-.065-.758a.186.186,0,0,0,.114-.262l-.186-.372a.186.186,0,0,0-.352.1c.022.222.045.468.068.727-.118-.155-.227-.3-.32-.418a.186.186,0,0,0-.038-.308l-.372-.186a.186.186,0,0,0-.229.283c.01.013.469.587,1.017,1.329a14.971,14.971,0,0,1,.069,2.779c-.016.049-.045.107-.072.109-.113.016-.381-.236-.516-.506a.259.259,0,0,0-.25-.169c-.2.012-.278.233-.42.633a2.623,2.623,0,0,1-.37.788,2.115,2.115,0,0,1-.232-.733.185.185,0,0,0,.36-.063c0-.278-.194-2.393-.3-3.553a.186.186,0,0,0,.107-.232l-.186-.559a.186.186,0,0,0-.362.077c.127,1.329.364,3.9.371,4.25l0-.01a.186.186,0,1,0-.369.053c.054.381.193,1.035.514,1.142a.311.311,0,0,0,.1.016.366.366,0,0,0,.262-.122,2.686,2.686,0,0,0,.461-.931c.027-.077.06-.168.09-.247.171.25.469.56.771.536a.457.457,0,0,0,.4-.363,10.493,10.493,0,0,0-.007-2.326c.157.22.314.445.464.668.058.558.1,1.117.1,1.576A.186.186,0,0,0,324.764,170.71Z" transform="translate(-309.636 -165.693)" fill="#f5f5f5"/>
      <path id="Path_30814" data-name="Path 30814" d="M382.716,170.139c-.132-.983-.316-2.122-.432-2.821a.183.183,0,0,0,.156-.033.186.186,0,0,0,.035-.261l-.338-.442a.186.186,0,0,0-.332.145c0,.019.336,1.931.541,3.462a1.746,1.746,0,0,1-.307,1.4.824.824,0,0,1-.683.255.186.186,0,1,0-.023.372c.031,0,.062,0,.093,0a1.176,1.176,0,0,0,.886-.375A2.08,2.08,0,0,0,382.716,170.139Z" transform="translate(-366.174 -166.101)" fill="#f5f5f5"/>
      <path id="Path_30815" data-name="Path 30815" d="M371.064,256.191a.189.189,0,0,0,.009.262.078.078,0,0,1,.022.039.087.087,0,0,1-.028.042.186.186,0,1,0,.263.263.422.422,0,0,0,.137-.318.443.443,0,0,0-.146-.3A.185.185,0,0,0,371.064,256.191Z" transform="translate(-356.571 -250.925)" fill="#f5f5f5"/>
      <path id="Path_30816" data-name="Path 30816" d="M155.506,326.993h-1.3v-.186a.186.186,0,1,0-.373,0v.186h-9.872a2.6,2.6,0,0,0,1.676.559h8.2v.372a.186.186,0,0,0,.186.186h1.49a.559.559,0,1,0,0-1.118Zm0,.745h-1.3v-.186h1.49l-.033-.1a.181.181,0,0,1,.033.1A.186.186,0,0,1,155.506,327.738Z" transform="translate(-141.67 -317.642)" fill="#f5f5f5"/>
    </g>
  </g>
</svg>
