<svg xmlns="http://www.w3.org/2000/svg" width="24.844" height="17.134" viewBox="0 0 24.844 17.134">
  <g id="kuwait_1_" data-name="kuwait (1)" transform="translate(0 0)">
    <path id="Path_30890" data-name="Path 30890" d="M30.471.856V6H13.337L5.914.222A.825.825,0,0,1,6.484,0H29.614A.859.859,0,0,1,30.471.856Zm0,0" transform="translate(-5.627 0)" fill="#0d7d35"/>
    <path id="Path_30891" data-name="Path 30891" d="M30.471,229.516v5.14a.859.859,0,0,1-.857.857H6.484a.825.825,0,0,1-.57-.223l7.423-5.774Zm0,0" transform="translate(-5.627 -218.379)" fill="#e30019"/>
    <path id="Path_30892" data-name="Path 30892" d="M158.9,123.586h17.134v5.14H158.9Zm0,0" transform="translate(-151.188 -117.59)" fill="#fff"/>
    <path id="Path_30893" data-name="Path 30893" d="M7.71,10.364V15.5L.287,21.278A.842.842,0,0,1,0,20.644V5.224A.842.842,0,0,1,.287,4.59Zm0,0" transform="translate(0 -4.368)"/>
  </g>
</svg>
