<svg xmlns="http://www.w3.org/2000/svg" width="24.842" height="16.276" viewBox="0 0 24.842 16.276">
  <g id="qatar_1_" data-name="qatar (1)" transform="translate(0 -88.276)">
    <path id="Path_30828" data-name="Path 30828" d="M10.744,103.762a.114.114,0,0,0,0-.219L8.5,102.856a.114.114,0,0,1,0-.219l2.247-.684a.114.114,0,0,0,0-.219L8.5,101.05a.114.114,0,0,1,0-.219l2.248-.687a.114.114,0,0,0,0-.219L8.5,99.242a.114.114,0,0,1,0-.219l2.248-.687a.114.114,0,0,0,0-.219L8.5,97.433a.114.114,0,0,1,0-.219l2.248-.687a.114.114,0,0,0,0-.219L8.5,95.624a.114.114,0,0,1,0-.219l2.248-.687a.114.114,0,0,0,0-.219L8.5,93.816a.114.114,0,0,1,0-.219l2.247-.684a.114.114,0,0,0,0-.219L8.5,92.007a.114.114,0,0,1,0-.219l2.248-.685a.114.114,0,0,0,0-.219L8.5,90.2a.114.114,0,0,1,0-.219l2.248-.685a.114.114,0,0,0,0-.219l-2.59-.791a.112.112,0,0,0-.033-.005H1.86A1.86,1.86,0,0,0,0,90.14v12.555a1.86,1.86,0,0,0,1.86,1.86h6.26a.113.113,0,0,0,.033,0Z" transform="translate(0 -0.004)" fill="#f5f5f5"/>
    <path id="Path_30829" data-name="Path 30829" d="M182.233,88.276H167.372a.114.114,0,0,1,.033.005l2.59.791a.114.114,0,0,1,0,.219l-2.248.685a.114.114,0,0,0,0,.219l2.248.687a.114.114,0,0,1,0,.219l-2.248.685a.114.114,0,0,0,0,.219L170,92.69a.114.114,0,0,1,0,.219l-2.247.684a.114.114,0,0,0,0,.219L170,94.5a.114.114,0,0,1,0,.219l-2.248.687a.114.114,0,0,0,0,.219L170,96.3a.114.114,0,0,1,0,.219l-2.248.687a.114.114,0,0,0,0,.219l2.248.685a.114.114,0,0,1,0,.219l-2.248.687a.114.114,0,0,0,0,.219l2.248.685a.114.114,0,0,1,0,.219l-2.248.687a.114.114,0,0,0,0,.219l2.247.684a.114.114,0,0,1,0,.219l-2.247.684a.114.114,0,0,0,0,.219l2.248.687a.114.114,0,0,1,0,.219l-2.59.789a.116.116,0,0,1-.033,0h14.86a1.86,1.86,0,0,0,1.86-1.86V90.136A1.86,1.86,0,0,0,182.233,88.276Z" transform="translate(-159.251)" fill="#700534"/>
  </g>
</svg>
